<svg width="256" height="256" viewBox="0 0 256 256" fill="none" xmlns="http://www.w3.org/2000/svg">
<path d="M76 128C144.826 62.5028 141.204 133.038 117.658 97.7705C94.1122 62.5028 59.699 119.813 117.658 98.4003" stroke="black" stroke-width="6"/>
<path d="M192 128C123.174 193.497 126.796 122.962 150.342 158.229C173.888 193.497 208.301 136.187 150.342 157.6" stroke="black" stroke-width="6"/>
<path d="M145.492 91.332C147.445 91.4492 149.086 91.5469 150.414 91.625C151.781 91.6641 152.914 91.7031 153.812 91.7422C154.828 91.7812 155.688 91.7812 156.391 91.7422C157.094 91.7031 158.051 91.6055 159.262 91.4492C160.277 91.332 161.625 91.1562 163.305 90.9219C165.023 90.6484 167.152 90.2969 169.691 89.8672C168.793 90.7656 168.09 91.5859 167.582 92.3281C167.113 93.0312 166.742 93.6367 166.469 94.1445C166.156 94.7695 165.941 95.2969 165.824 95.7266C165.746 96.1172 165.824 97.0938 166.059 98.6562C166.293 100.219 166.625 102.074 167.055 104.223C167.484 106.332 167.953 108.598 168.461 111.02C168.969 113.402 169.477 115.648 169.984 117.758C170.492 119.828 170.941 121.605 171.332 123.09C171.762 124.535 172.074 125.395 172.27 125.668C172.855 126.488 173.227 127.035 173.383 127.309C173.539 127.543 173.812 127.758 174.203 127.953C174.359 128.031 174.613 128.148 174.965 128.305C175.277 128.461 175.688 128.656 176.195 128.891C176.742 129.125 177.426 129.398 178.246 129.711C176.723 129.789 175.414 129.848 174.32 129.887C173.227 129.887 172.328 129.906 171.625 129.945C170.805 129.984 170.102 130.023 169.516 130.062C168.93 130.062 168.227 130.102 167.406 130.18C166.703 130.258 165.785 130.336 164.652 130.414C163.559 130.492 162.27 130.57 160.785 130.648C161.566 130.102 162.191 129.613 162.66 129.184C163.168 128.715 163.559 128.324 163.832 128.012C164.145 127.621 164.359 127.27 164.477 126.957C164.555 126.605 164.613 126.078 164.652 125.375C164.691 124.75 164.691 123.93 164.652 122.914C164.613 121.859 164.516 120.492 164.359 118.812L148.949 120.395C148.559 121.059 148.266 121.645 148.07 122.152C147.875 122.621 147.738 123.031 147.66 123.383C147.543 123.812 147.504 124.164 147.543 124.438C147.621 124.75 147.758 125.121 147.953 125.551C148.148 125.941 148.422 126.41 148.773 126.957C149.164 127.465 149.73 128.07 150.473 128.773C149.496 128.734 148.5 128.715 147.484 128.715C146.469 128.715 145.531 128.734 144.672 128.773C143.656 128.812 142.66 128.852 141.684 128.891C140.707 128.93 139.594 128.988 138.344 129.066C137.289 129.145 136.059 129.242 134.652 129.359C133.207 129.438 131.664 129.555 130.023 129.711C131.039 129.242 131.898 128.773 132.602 128.305C133.305 127.797 133.891 127.328 134.359 126.898C134.906 126.43 135.375 125.98 135.766 125.551C136.039 125.16 136.586 124.262 137.406 122.855C138.227 121.41 139.145 119.711 140.16 117.758C141.215 115.805 142.309 113.715 143.441 111.488C144.613 109.262 145.668 107.172 146.605 105.219C147.543 103.227 148.305 101.508 148.891 100.062C149.477 98.6172 149.77 97.6797 149.77 97.25C149.691 96.7422 149.496 96.1758 149.184 95.5508C148.91 95.0039 148.48 94.3789 147.895 93.6758C147.348 92.9727 146.547 92.1914 145.492 91.332ZM163.656 114.477C163.422 113.109 163.207 111.938 163.012 110.961C162.816 109.945 162.66 109.105 162.543 108.441C162.387 107.66 162.27 106.977 162.191 106.391C162.074 105.844 161.938 105.141 161.781 104.281C161.625 103.539 161.43 102.621 161.195 101.527C161 100.395 160.746 99.0469 160.434 97.4844C158.207 101.938 156.469 105.395 155.219 107.855C154.008 110.277 153.129 112.055 152.582 113.188C151.918 114.516 151.547 115.297 151.469 115.531L163.656 114.477Z" fill="black"/>
<path d="M79.76 135.34H128.12V163.54H123.5V139.72H84.26V163.84H79.76V135.34ZM82.16 155.68H126.2V160.12H82.16V155.68ZM101.48 124.6H106.22V179.74H101.48V124.6Z" fill="black"/>
<path d="M163.055 158.359C163.388 158.354 163.661 158.414 163.875 158.539C164.094 158.664 164.271 158.812 164.406 158.984C164.542 159.156 164.646 159.331 164.719 159.508C164.792 159.68 164.849 159.815 164.891 159.914C164.901 159.94 164.922 159.974 164.953 160.016C164.979 160.052 165.016 160.096 165.062 160.148C165.115 160.195 165.18 160.25 165.258 160.312C165.096 160.318 164.953 160.323 164.828 160.328C164.703 160.328 164.596 160.331 164.508 160.336C164.409 160.341 164.32 160.346 164.242 160.352C164.164 160.357 164.068 160.365 163.953 160.375C163.849 160.385 163.721 160.396 163.57 160.406C163.419 160.417 163.234 160.432 163.016 160.453C163.146 160.297 163.247 160.159 163.32 160.039C163.398 159.914 163.456 159.805 163.492 159.711C163.534 159.612 163.557 159.526 163.562 159.453C163.573 159.38 163.57 159.318 163.555 159.266C163.523 159.146 163.443 159.06 163.312 159.008C162.938 158.904 162.609 158.987 162.328 159.258C162.052 159.523 161.854 159.961 161.734 160.57C161.677 160.872 161.622 161.188 161.57 161.516C161.523 161.839 161.505 162.135 161.516 162.406C161.526 162.672 161.578 162.888 161.672 163.055C161.766 163.221 161.927 163.299 162.156 163.289C162.38 163.279 162.57 163.242 162.727 163.18C162.883 163.112 163.008 163.034 163.102 162.945C163.195 162.852 163.26 162.753 163.297 162.648C163.339 162.539 163.354 162.438 163.344 162.344C163.323 162.271 163.268 162.193 163.18 162.109C163.102 162.036 162.984 161.956 162.828 161.867C162.672 161.773 162.448 161.677 162.156 161.578C162.432 161.562 162.659 161.552 162.836 161.547C163.018 161.536 163.161 161.526 163.266 161.516C163.391 161.505 163.487 161.497 163.555 161.492C163.617 161.487 163.708 161.482 163.828 161.477C163.932 161.471 164.065 161.469 164.227 161.469C164.393 161.469 164.602 161.466 164.852 161.461C164.758 161.555 164.685 161.641 164.633 161.719C164.607 161.76 164.583 161.797 164.562 161.828C164.542 161.88 164.534 161.987 164.539 162.148C164.539 162.284 164.549 162.484 164.57 162.75C164.591 163.01 164.63 163.367 164.688 163.82L163.648 163.961L163.695 162.906C163.576 163.193 163.424 163.406 163.242 163.547C163.065 163.688 162.896 163.786 162.734 163.844C162.542 163.911 162.341 163.943 162.133 163.938C161.862 163.911 161.591 163.849 161.32 163.75C161.049 163.651 160.81 163.5 160.602 163.297C160.393 163.089 160.232 162.82 160.117 162.492C160.008 162.164 159.974 161.758 160.016 161.273C160.062 160.789 160.177 160.367 160.359 160.008C160.547 159.643 160.779 159.341 161.055 159.102C161.331 158.862 161.641 158.682 161.984 158.562C162.333 158.438 162.69 158.37 163.055 158.359ZM165.438 164.219C165.49 164.141 165.531 164.068 165.562 164C165.594 163.932 165.62 163.875 165.641 163.828C165.661 163.771 165.677 163.719 165.688 163.672C165.693 163.641 165.695 163.549 165.695 163.398C165.695 163.247 165.69 163.057 165.68 162.828C165.674 162.599 165.667 162.341 165.656 162.055C165.651 161.768 165.641 161.477 165.625 161.18C165.615 160.883 165.602 160.594 165.586 160.312C165.576 160.031 165.565 159.779 165.555 159.555C165.544 159.326 165.534 159.138 165.523 158.992C165.513 158.846 165.505 158.763 165.5 158.742C165.49 158.711 165.471 158.68 165.445 158.648C165.393 158.586 165.305 158.526 165.18 158.469C165.445 158.401 165.648 158.346 165.789 158.305C165.872 158.284 165.945 158.263 166.008 158.242C166.065 158.221 166.122 158.201 166.18 158.18C166.227 158.159 166.279 158.135 166.336 158.109C166.393 158.078 166.445 158.044 166.492 158.008C166.466 158.159 166.445 158.305 166.43 158.445C166.414 158.586 166.401 158.716 166.391 158.836C166.38 158.971 166.375 159.102 166.375 159.227C166.349 159.482 166.333 159.76 166.328 160.062C166.328 160.359 166.331 160.661 166.336 160.969C166.341 161.276 166.352 161.576 166.367 161.867C166.383 162.159 166.398 162.424 166.414 162.664C166.435 162.898 166.453 163.099 166.469 163.266C166.49 163.427 166.505 163.531 166.516 163.578C166.536 163.656 166.557 163.732 166.578 163.805C166.599 163.867 166.622 163.932 166.648 164C166.674 164.073 166.706 164.13 166.742 164.172H165.984C165.917 164.172 165.852 164.174 165.789 164.18C165.732 164.185 165.672 164.19 165.609 164.195C165.547 164.201 165.49 164.208 165.438 164.219ZM169.055 162.742C169.201 162.742 169.336 162.727 169.461 162.695C169.565 162.669 169.664 162.628 169.758 162.57C169.857 162.508 169.922 162.417 169.953 162.297C170.057 162.318 170.146 162.336 170.219 162.352C170.292 162.362 170.354 162.372 170.406 162.383C170.464 162.398 170.513 162.409 170.555 162.414C170.596 162.424 170.646 162.435 170.703 162.445C170.755 162.456 170.818 162.469 170.891 162.484C170.969 162.495 171.06 162.51 171.164 162.531C171.086 162.521 171.005 162.529 170.922 162.555C170.844 162.581 170.768 162.609 170.695 162.641C170.612 162.677 170.534 162.721 170.461 162.773C170.414 162.805 170.359 162.852 170.297 162.914C170.24 162.977 170.156 163.036 170.047 163.094C169.938 163.151 169.792 163.201 169.609 163.242C169.432 163.279 169.203 163.292 168.922 163.281C168.583 163.271 168.299 163.211 168.07 163.102C167.841 162.987 167.656 162.849 167.516 162.688C167.375 162.521 167.273 162.341 167.211 162.148C167.148 161.956 167.115 161.776 167.109 161.609C167.104 161.443 167.154 161.268 167.258 161.086C167.362 160.904 167.508 160.737 167.695 160.586C167.888 160.435 168.12 160.312 168.391 160.219C168.661 160.12 168.958 160.07 169.281 160.07C169.469 160.07 169.641 160.094 169.797 160.141C169.958 160.182 170.104 160.24 170.234 160.312C170.37 160.385 170.487 160.469 170.586 160.562C170.685 160.651 170.768 160.742 170.836 160.836C170.904 160.935 170.961 161.039 171.008 161.148C171.049 161.242 171.083 161.349 171.109 161.469C171.135 161.589 171.143 161.711 171.133 161.836C170.737 161.846 170.417 161.854 170.172 161.859C169.932 161.865 169.745 161.867 169.609 161.867H169.258H168.992C168.898 161.867 168.776 161.87 168.625 161.875C168.474 161.88 168.289 161.888 168.07 161.898C168.096 162.107 168.161 162.268 168.266 162.383C168.375 162.492 168.49 162.576 168.609 162.633C168.745 162.695 168.893 162.732 169.055 162.742ZM168.352 161.336C168.518 161.346 168.656 161.354 168.766 161.359C168.88 161.365 168.974 161.37 169.047 161.375C169.125 161.38 169.188 161.383 169.234 161.383H169.43C169.56 161.383 169.802 161.375 170.156 161.359C170.141 161.13 170.091 160.956 170.008 160.836C169.93 160.716 169.846 160.628 169.758 160.57C169.654 160.508 169.539 160.471 169.414 160.461C169.076 160.466 168.823 160.536 168.656 160.672C168.495 160.807 168.393 161.029 168.352 161.336ZM174.891 159.539C174.844 159.654 174.802 159.758 174.766 159.852C174.734 159.945 174.706 160.029 174.68 160.102C174.654 160.185 174.63 160.258 174.609 160.32C174.589 160.393 174.565 160.477 174.539 160.57C174.513 160.654 174.479 160.758 174.438 160.883C174.401 161.003 174.357 161.146 174.305 161.312C174.263 161.062 174.188 160.865 174.078 160.719C173.969 160.568 173.857 160.451 173.742 160.367C173.607 160.273 173.461 160.206 173.305 160.164C173.023 160.117 172.82 160.122 172.695 160.18C172.57 160.237 172.487 160.31 172.445 160.398C172.424 160.435 172.401 160.482 172.375 160.539C172.354 160.591 172.336 160.646 172.32 160.703C172.31 160.76 172.307 160.818 172.312 160.875C172.318 160.932 172.341 160.979 172.383 161.016C172.409 161.042 172.477 161.078 172.586 161.125C172.695 161.167 172.826 161.216 172.977 161.273C173.133 161.326 173.297 161.383 173.469 161.445C173.646 161.508 173.812 161.57 173.969 161.633C174.125 161.695 174.26 161.758 174.375 161.82C174.49 161.883 174.565 161.94 174.602 161.992C174.633 162.044 174.667 162.115 174.703 162.203C174.745 162.286 174.773 162.38 174.789 162.484C174.81 162.583 174.815 162.688 174.805 162.797C174.799 162.901 174.771 163.005 174.719 163.109C174.667 163.214 174.583 163.31 174.469 163.398C174.359 163.487 174.211 163.56 174.023 163.617C173.805 163.685 173.594 163.703 173.391 163.672C173.188 163.641 173 163.594 172.828 163.531C172.661 163.469 172.516 163.409 172.391 163.352C172.266 163.289 172.177 163.263 172.125 163.273C172.068 163.284 172.003 163.312 171.93 163.359C171.857 163.406 171.786 163.456 171.719 163.508C171.656 163.555 171.602 163.599 171.555 163.641C171.508 163.677 171.484 163.69 171.484 163.68C171.484 163.669 171.492 163.638 171.508 163.586C171.529 163.534 171.549 163.471 171.57 163.398C171.596 163.32 171.62 163.237 171.641 163.148C171.667 163.055 171.685 162.966 171.695 162.883C171.706 162.815 171.719 162.732 171.734 162.633C171.745 162.544 171.758 162.438 171.773 162.312C171.794 162.182 171.818 162.026 171.844 161.844C171.87 161.979 171.906 162.096 171.953 162.195C172.005 162.294 172.055 162.38 172.102 162.453C172.159 162.536 172.214 162.607 172.266 162.664C172.344 162.737 172.435 162.805 172.539 162.867C172.648 162.93 172.758 162.984 172.867 163.031C172.977 163.073 173.081 163.099 173.18 163.109C173.279 163.12 173.362 163.109 173.43 163.078C173.497 163.047 173.555 162.99 173.602 162.906C173.654 162.823 173.69 162.732 173.711 162.633C173.732 162.534 173.74 162.44 173.734 162.352C173.729 162.258 173.706 162.182 173.664 162.125C173.633 162.089 173.56 162.042 173.445 161.984C173.336 161.927 173.203 161.865 173.047 161.797C172.896 161.729 172.734 161.659 172.562 161.586C172.396 161.513 172.237 161.44 172.086 161.367C171.94 161.289 171.818 161.216 171.719 161.148C171.625 161.076 171.573 161.01 171.562 160.953C171.552 160.87 171.544 160.779 171.539 160.68C171.534 160.576 171.539 160.474 171.555 160.375C171.576 160.271 171.612 160.172 171.664 160.078C171.721 159.984 171.805 159.906 171.914 159.844C171.987 159.802 172.083 159.771 172.203 159.75C172.323 159.729 172.456 159.719 172.602 159.719C172.747 159.714 172.898 159.719 173.055 159.734C173.211 159.745 173.359 159.76 173.5 159.781C173.646 159.797 173.776 159.818 173.891 159.844C174.01 159.87 174.102 159.893 174.164 159.914C174.237 159.94 174.315 159.943 174.398 159.922C174.471 159.906 174.549 159.872 174.633 159.82C174.716 159.768 174.802 159.674 174.891 159.539Z" fill="black"/>
</svg>
